<svg width="475" height="294" viewBox="0 0 475 294" fill="none" xmlns="http://www.w3.org/2000/svg">
<rect width="475" height="294" rx="64" fill="#00AEFF"/>
<path d="M87.2155 207.44C83.6155 207.44 80.8555 206.48 78.9355 204.56C77.0155 202.52 76.0555 199.64 76.0555 195.92V89C76.0555 85.28 77.0155 82.46 78.9355 80.54C80.8555 78.62 83.6155 77.66 87.2155 77.66C90.8155 77.66 93.5755 78.62 95.4955 80.54C97.5355 82.46 98.5555 85.28 98.5555 89V135.62H96.0355C98.6755 129.26 102.755 124.46 108.275 121.22C113.915 117.86 120.275 116.18 127.355 116.18C134.435 116.18 140.255 117.5 144.815 120.14C149.375 122.78 152.795 126.8 155.075 132.2C157.355 137.48 158.495 144.2 158.495 152.36V195.92C158.495 199.64 157.535 202.52 155.615 204.56C153.695 206.48 150.935 207.44 147.335 207.44C143.735 207.44 140.915 206.48 138.875 204.56C136.955 202.52 135.995 199.64 135.995 195.92V153.44C135.995 146.6 134.675 141.62 132.035 138.5C129.515 135.38 125.555 133.82 120.155 133.82C113.555 133.82 108.275 135.92 104.315 140.12C100.475 144.2 98.5555 149.66 98.5555 156.5V195.92C98.5555 203.6 94.7755 207.44 87.2155 207.44ZM221.668 207.8C213.868 207.8 207.328 206.48 202.048 203.84C196.888 201.2 193.048 197.36 190.528 192.32C188.008 187.16 186.748 180.8 186.748 173.24V134.9H177.388C174.508 134.9 172.288 134.18 170.728 132.74C169.168 131.18 168.388 129.08 168.388 126.44C168.388 123.68 169.168 121.58 170.728 120.14C172.288 118.7 174.508 117.98 177.388 117.98H186.748V101.6C186.748 97.88 187.708 95.06 189.628 93.14C191.668 91.22 194.488 90.26 198.088 90.26C201.688 90.26 204.448 91.22 206.368 93.14C208.288 95.06 209.248 97.88 209.248 101.6V117.98H228.328C231.208 117.98 233.428 118.7 234.988 120.14C236.548 121.58 237.328 123.68 237.328 126.44C237.328 129.08 236.548 131.18 234.988 132.74C233.428 134.18 231.208 134.9 228.328 134.9H209.248V171.98C209.248 177.74 210.508 182.06 213.028 184.94C215.548 187.82 219.628 189.26 225.268 189.26C227.308 189.26 229.108 189.08 230.668 188.72C232.228 188.36 233.608 188.12 234.808 188C236.248 187.88 237.448 188.36 238.408 189.44C239.368 190.4 239.848 192.44 239.848 195.56C239.848 197.96 239.428 200.12 238.588 202.04C237.868 203.84 236.488 205.1 234.448 205.82C232.888 206.3 230.848 206.72 228.328 207.08C225.808 207.56 223.588 207.8 221.668 207.8ZM285.653 207.8C277.853 207.8 271.313 206.48 266.033 203.84C260.873 201.2 257.033 197.36 254.513 192.32C251.993 187.16 250.733 180.8 250.733 173.24V134.9H241.373C238.493 134.9 236.273 134.18 234.713 132.74C233.153 131.18 232.373 129.08 232.373 126.44C232.373 123.68 233.153 121.58 234.713 120.14C236.273 118.7 238.493 117.98 241.373 117.98H250.733V101.6C250.733 97.88 251.693 95.06 253.613 93.14C255.653 91.22 258.473 90.26 262.073 90.26C265.673 90.26 268.433 91.22 270.353 93.14C272.273 95.06 273.233 97.88 273.233 101.6V117.98H292.313C295.193 117.98 297.413 118.7 298.973 120.14C300.533 121.58 301.313 123.68 301.313 126.44C301.313 129.08 300.533 131.18 298.973 132.74C297.413 134.18 295.193 134.9 292.313 134.9H273.233V171.98C273.233 177.74 274.493 182.06 277.013 184.94C279.533 187.82 283.613 189.26 289.253 189.26C291.293 189.26 293.093 189.08 294.653 188.72C296.213 188.36 297.593 188.12 298.793 188C300.233 187.88 301.433 188.36 302.393 189.44C303.353 190.4 303.833 192.44 303.833 195.56C303.833 197.96 303.413 200.12 302.573 202.04C301.853 203.84 300.473 205.1 298.433 205.82C296.873 206.3 294.833 206.72 292.313 207.08C289.793 207.56 287.573 207.8 285.653 207.8ZM325.575 239.84C321.975 239.84 319.215 238.88 317.295 236.96C315.375 235.04 314.415 232.22 314.415 228.5V127.88C314.415 124.16 315.375 121.34 317.295 119.42C319.215 117.5 321.915 116.54 325.395 116.54C328.995 116.54 331.755 117.5 333.675 119.42C335.595 121.34 336.555 124.16 336.555 127.88V141.92L334.575 136.52C336.375 130.4 340.035 125.48 345.555 121.76C351.195 118.04 357.735 116.18 365.175 116.18C372.855 116.18 379.575 118.04 385.335 121.76C391.215 125.48 395.775 130.76 399.015 137.6C402.255 144.32 403.875 152.42 403.875 161.9C403.875 171.26 402.255 179.42 399.015 186.38C395.775 193.22 391.275 198.5 385.515 202.22C379.755 205.94 372.975 207.8 365.175 207.8C357.855 207.8 351.435 206 345.915 202.4C340.395 198.68 336.675 193.88 334.755 188H336.915V228.5C336.915 232.22 335.895 235.04 333.855 236.96C331.935 238.88 329.175 239.84 325.575 239.84ZM358.875 190.7C363.315 190.7 367.215 189.62 370.575 187.46C373.935 185.3 376.515 182.12 378.315 177.92C380.235 173.6 381.195 168.26 381.195 161.9C381.195 152.3 379.155 145.16 375.075 140.48C370.995 135.68 365.595 133.28 358.875 133.28C354.435 133.28 350.535 134.36 347.175 136.52C343.815 138.56 341.175 141.74 339.255 146.06C337.455 150.26 336.555 155.54 336.555 161.9C336.555 171.38 338.595 178.58 342.675 183.5C346.755 188.3 352.155 190.7 358.875 190.7Z" fill="white"/>
</svg>
