<?xml version="1.0" encoding="UTF-8"?>
<svg id="Layer_1" data-name="Layer 1" xmlns="http://www.w3.org/2000/svg" viewBox="0 0 256 256">
  <defs>
    <style>
      .cls-1 {
        fill: #00fff0;
      }
    </style>
  </defs>
  <path class="cls-1" d="M145,139.49h-14.44c-2.76,0-5,2.24-5,5v22.51c0,2.76,2.24,5,5,5s5-2.24,5-5v-17.51h9.44c5.28,0,10.23,2.35,13.57,6.44,5.23,6.41,5.23,15.72,0,22.14-3.34,4.09-8.28,6.44-13.57,6.44-2.76,0-5,2.24-5,5s2.24,5,5,5c8.3,0,16.07-3.69,21.32-10.12,8.22-10.08,8.22-24.71,0-34.78-5.25-6.43-13.02-10.12-21.32-10.12Z"/>
  <circle class="cls-1" cx="130.56" cy="189.51" r="5"/>
  <path class="cls-1" d="M83.03,74.59h74.31c1.58,0,2.86-1.28,2.86-2.86V8.36c0-2.46-2.89-3.77-4.74-2.15l-15.26,13.36L122.07,3.71c-1.08-.94-2.69-.94-3.77,0l-18.12,15.86-15.26-13.36c-1.85-1.62-4.74-.3-4.74,2.15v63.37c0,1.58,1.28,2.86,2.86,2.86Zm16.82-34.59l13.26-13.26c1.89-1.89,4.4-2.93,7.07-2.93s5.18,1.04,7.07,2.93l13.26,13.26c1.89,1.89,2.93,4.4,2.93,7.07s-1.04,5.18-2.93,7.07l-13.26,13.26c-1.89,1.89-4.4,2.93-7.07,2.93s-5.18-1.04-7.07-2.93l-13.26-13.26c-1.89-1.89-2.93-4.4-2.93-7.07s1.04-5.18,2.93-7.07Z"/>
  <path class="cls-1" d="M79.86,97.1h80.03c4.14,0,7.5-3.36,7.5-7.5s-3.36-7.5-7.5-7.5H79.86c-4.14,0-7.5,3.36-7.5,7.5s3.36,7.5,7.5,7.5Z"/>
  <path class="cls-1" d="M118.42,62.11c.49,.49,1.13,.73,1.77,.73s1.28-.24,1.77-.73l13.26-13.26c.98-.98,.98-2.56,0-3.54l-13.26-13.26c-.49-.49-1.13-.73-1.77-.73s-1.28,.24-1.77,.73l-13.26,13.26c-.98,.98-.98,2.56,0,3.54l13.26,13.26Z"/>
  <polygon class="cls-1" points="185.43 82.47 191.51 98.9 197.59 82.47 214.02 76.39 197.59 70.31 191.51 53.88 185.43 70.31 169 76.39 185.43 82.47"/>
  <path class="cls-1" d="M172.59,58.99l9.89-9.89c1.12-1.12,1.12-2.93,0-4.05l-9.89-9.89c-1.8-1.8-4.88-.53-4.88,2.02v19.78c0,2.55,3.08,3.83,4.88,2.02Z"/>
  <path class="cls-1" d="M67.78,58.99c1.8,1.8,4.88,.53,4.88-2.02v-19.78c0-2.55-3.08-3.82-4.88-2.02l-9.89,9.89c-1.12,1.12-1.12,2.93,0,4.05l9.89,9.89Z"/>
  <polygon class="cls-1" points="199.33 104.84 196.62 112.14 189.32 114.85 196.62 117.55 199.33 124.85 202.03 117.55 209.33 114.85 202.03 112.14 199.33 104.84"/>
  <polygon class="cls-1" points="228.69 86.1 218.08 90.98 207.47 86.1 212.35 96.71 207.47 107.33 218.08 102.45 228.69 107.33 223.82 96.71 228.69 86.1"/>
  <path class="cls-1" d="M207.31,162.33c-.31-2.79-1.35-5.51-3.13-7.87-.32-.43-.67-.84-1.04-1.25l-40.45-43.71c-.95-1.03-2.02-1.91-3.18-2.65-.46-.29-.94-.56-1.43-.81-2.2-1.1-4.66-1.69-7.17-1.69H83.81c-4.47,0-8.74,1.87-11.78,5.15l-40.45,43.71c-5.96,6.44-5.65,16.46,.7,22.52l76.52,73.04c2.44,2.33,5.44,3.73,8.55,4.22h0s.01,0,.02,0c0,0,.01,0,.02,0h0s0,0,0,0c1.17-.19,2.32-.5,3.43-.94,0,0,0,0,0,0,.37-.15,.73-.31,1.09-.48,.03-.01,.05-.03,.07-.04,.33-.17,.67-.34,.99-.53,.08-.05,.15-.1,.23-.14,.27-.16,.54-.33,.8-.51,.19-.13,.37-.28,.56-.42,.14-.11,.29-.21,.43-.32,.32-.26,.64-.54,.94-.83l76.52-73.04c.55-.52,1.05-1.08,1.51-1.66,.44-.55,.83-1.12,1.18-1.72,.89-1.48,1.52-3.07,1.89-4.71,.22-1,.35-2.01,.38-3.03,.02-.51,0-1.02-.02-1.53-.02-.25-.04-.51-.07-.76Zm-140.08,32.18c-2.76,0-5-2.24-5-5s2.24-5,5-5,5,2.24,5,5-2.24,5-5,5Zm35.76-10.12c-5.25,6.43-13.02,10.12-21.32,10.12-2.76,0-5-2.24-5-5s2.24-5,5-5c5.28,0,10.23-2.35,13.57-6.44,5.23-6.41,5.23-15.72,0-22.14-3.34-4.09-8.28-6.44-13.57-6.44h-9.44v17.51c0,2.76-2.24,5-5,5s-5-2.24-5-5v-22.51c0-2.76,2.24-5,5-5h14.44c8.3,0,16.07,3.69,21.32,10.12,8.22,10.08,8.22,24.71,0,34.78Zm94.27-14.09l-76.52,73.04c-.96,.91-2.11,1.58-3.37,1.97V111.86h33.53c2.38,0,4.66,1,6.28,2.74l40.45,43.71c3.15,3.41,2.99,8.79-.37,11.99Z"/>
</svg>